Coordinates
version=1
nRows=41
nColumns=38
inDegrees=no

Units are S.I. units (second, meters, Newtons, ...)
If the header above contains a line with 'inDegrees', this indicates whether rotational values are in degrees (yes) or radians (no).

endheader
time	pelvis_tilt	pelvis_list	pelvis_rotation	pelvis_tx	pelvis_ty	pelvis_tz	hip_flexion_r	hip_adduction_r	hip_rotation_r	knee_angle_r	ankle_angle_r	subtalar_angle_r	mtp_angle_r	hip_flexion_l	hip_adduction_l	hip_rotation_l	knee_angle_l	ankle_angle_l	subtalar_angle_l	mtp_angle_l	lumbar_extension	lumbar_bending	lumbar_rotation	arm_flex_r	arm_add_r	arm_rot_r	elbow_flex_r	pro_sup_r	wrist_flex_r	wrist_dev_r	arm_flex_l	arm_add_l	arm_rot_l	elbow_flex_l	pro_sup_l	wrist_flex_l	wrist_dev_l
20	2.35411	1.49913	-0.680296	0.671309	0.655822	0.940551	-0.0393638	-0.0591386	-0.26208	0.281797	-0.275006	0	0	-0.127437	-0.152916	-0.338493	0.069814	-0.481538	0	0	-0.166442	0.0818508	-0.178642	0.0348497	-0.475051	0.465374	0.603681	0.945328	0	0	-0.0510722	-0.349242	0.194921	0.81361	1.46099	0	0
20.01	2.3371	1.50131	-0.664018	0.671424	0.655668	0.940226	-0.0324061	-0.0625618	-0.260571	0.288603	-0.274739	0	0	-0.123756	-0.152152	-0.339591	0.0721609	-0.4799	0	0	-0.165609	0.0815836	-0.177787	0.0361318	-0.474962	0.465295	0.60277	0.944921	0	0	-0.0506151	-0.349309	0.193388	0.814346	1.46209	0	0
20.02	2.32079	1.50287	-0.647936	0.671484	0.65548	0.939993	-0.0278878	-0.0637048	-0.259087	0.292332	-0.273108	0	0	-0.120073	-0.151953	-0.340419	0.0752388	-0.478052	0	0	-0.165587	0.082054	-0.177066	0.0377186	-0.475162	0.466064	0.601852	0.944723	0	0	-0.049688	-0.349205	0.192232	0.814533	1.4632	0	0
20.03	2.30368	1.50437	-0.630725	0.671517	0.655276	0.93977	-0.0231428	-0.0647378	-0.25834	0.297313	-0.270347	0	0	-0.11599	-0.151927	-0.340915	0.0789805	-0.475908	0	0	-0.165814	0.0827643	-0.176452	0.0393782	-0.475459	0.466955	0.601016	0.944231	0	0	-0.0486039	-0.348991	0.191206	0.814531	1.46404	0	0
20.04	2.28776	1.50604	-0.615023	0.671591	0.655006	0.939527	-0.0170449	-0.0664083	-0.257432	0.305189	-0.266806	0	0	-0.111595	-0.15178	-0.34179	0.0833637	-0.473497	0	0	-0.166394	0.0832941	-0.175486	0.0410309	-0.475478	0.466984	0.600458	0.942375	0	0	-0.0474713	-0.348843	0.190115	0.814627	1.46457	0	0
20.05	2.27104	1.50766	-0.599012	0.67173	0.654654	0.93928	-0.00990807	-0.0681031	-0.256025	0.314931	-0.263127	0	0	-0.106999	-0.151785	-0.342962	0.0882964	-0.470874	0	0	-0.167363	0.0838431	-0.173994	0.0428343	-0.475233	0.466463	0.599989	0.94003	0	0	-0.0462509	-0.348835	0.189112	0.81475	1.46524	0	0
20.06	2.24811	1.50943	-0.576644	0.671758	0.65425	0.939018	-0.0028404	-0.0691756	-0.253106	0.324041	-0.259875	0	0	-0.101547	-0.151805	-0.344203	0.0939369	-0.468001	0	0	-0.168151	0.0846742	-0.172465	0.0449683	-0.475263	0.466986	0.599076	0.93907	0	0	-0.0446919	-0.348606	0.188605	0.814262	1.46609	0	0
20.07	2.21576	1.51203	-0.544957	0.671865	0.653827	0.938599	0.00602479	-0.0718332	-0.249817	0.332606	-0.259288	0	0	-0.0949581	-0.151453	-0.345222	0.0999433	-0.46475	0	0	-0.16802	0.0849424	-0.1707	0.046762	-0.475096	0.46784	0.598135	0.938576	0	0	-0.0431608	-0.348786	0.188831	0.813835	1.46651	0	0
20.08	2.18981	1.51436	-0.519175	0.67198	0.653378	0.938192	0.0144535	-0.0745566	-0.247645	0.341756	-0.260844	0	0	-0.0887534	-0.151132	-0.345627	0.106058	-0.461132	0	0	-0.168635	0.0852456	-0.169253	0.0482307	-0.474606	0.467491	0.597682	0.937034	0	0	-0.0413926	-0.349407	0.189886	0.813392	1.46596	0	0
20.09	2.11047	1.52158	-0.439544	0.67324	0.653513	0.936597	0.0193412	-0.0847766	-0.30198	0.332729	-0.268888	0	0	-0.0767261	-0.150249	-0.347133	0.115873	-0.455137	0	0	-0.160691	0.0798618	-0.168444	0.045809	-0.471071	0.465227	0.597331	0.935921	0	0	-0.0431612	-0.354327	0.192363	0.815491	1.4651	0	0
20.1	0.954285	1.53443	0.7012	0.675168	0.651981	0.931186	0.11435	-0.095929	-0.174833	0.365329	-0.280781	0	0	-0.0205725	-0.133807	-0.350414	0.13322	-0.444283	0	0	-0.113361	0.060773	-0.155326	0.0419211	-0.467472	0.463074	0.594221	0.93693	0	0	-0.0481718	-0.356017	0.190836	0.814427	1.46896	0	0
20.11	2.0046	1.51838	-0.336422	0.672557	0.651142	0.937009	0.0508111	-0.0775238	-0.231944	0.384359	-0.242848	0	0	-0.0605123	-0.156835	-0.35257	0.135694	-0.447786	0	0	-0.171598	0.0916983	-0.162224	0.0556124	-0.4737	0.463665	0.596181	0.933855	0	0	-0.0352298	-0.346908	0.182558	0.810209	1.48144	0	0
20.12	1.92129	1.52127	-0.253147	0.672615	0.65018	0.936302	0.0638635	-0.0805185	-0.226878	0.396089	-0.239485	0	0	-0.0469547	-0.157433	-0.355725	0.150072	-0.441721	0	0	-0.171621	0.0924677	-0.160576	0.0576166	-0.473184	0.460468	0.596341	0.932828	0	0	-0.0332341	-0.346821	0.181139	0.810093	1.48422	0	0
20.13	1.82603	1.52391	-0.157133	0.672629	0.649087	0.935505	0.0780795	-0.083897	-0.222356	0.410334	-0.234871	0	0	-0.0315145	-0.158569	-0.358597	0.167235	-0.435533	0	0	-0.171854	0.0933428	-0.159645	0.0600556	-0.472778	0.457827	0.596447	0.933493	0	0	-0.0311836	-0.346953	0.179627	0.810436	1.48679	0	0
20.14	1.69878	1.52638	-0.0287399	0.672611	0.647878	0.934512	0.0962889	-0.0883194	-0.217484	0.432073	-0.226774	0	0	-0.0130523	-0.160294	-0.362105	0.188119	-0.427716	0	0	-0.171326	0.0940716	-0.159221	0.0625937	-0.472299	0.454094	0.596576	0.935052	0	0	-0.0295035	-0.347147	0.17749	0.81141	1.48979	0	0
20.15	1.56487	1.52814	0.106841	0.672522	0.646571	0.933432	0.116148	-0.0934104	-0.212197	0.458615	-0.218477	0	0	0.00618472	-0.162346	-0.364801	0.210777	-0.419531	0	0	-0.171531	0.0948563	-0.159202	0.0654414	-0.471941	0.449893	0.596823	0.936407	0	0	-0.0279966	-0.347579	0.1751	0.81343	1.49262	0	0
20.16	1.41431	1.52867	0.259261	0.672353	0.645115	0.932283	0.13308	-0.0975388	-0.209305	0.476711	-0.213214	0	0	0.0264007	-0.16473	-0.365939	0.234278	-0.411108	0	0	-0.171893	0.0961889	-0.159159	0.0688297	-0.471832	0.445811	0.596778	0.938223	0	0	-0.026121	-0.347722	0.172635	0.815496	1.49512	0	0
20.17	1.24693	1.52777	0.428419	0.672126	0.643561	0.93103	0.149071	-0.101388	-0.208542	0.489898	-0.209292	0	0	0.0475064	-0.1671	-0.365803	0.257764	-0.402721	0	0	-0.171846	0.0978036	-0.158811	0.0723902	-0.472006	0.441524	0.596639	0.940732	0	0	-0.0238731	-0.347549	0.170275	0.817305	1.49719	0	0
20.18	1.07534	1.52593	0.60182	0.671921	0.641972	0.929593	0.168099	-0.106904	-0.207737	0.507321	-0.20536	0	0	0.0688461	-0.168769	-0.364867	0.280763	-0.394589	0	0	-0.171437	0.0986834	-0.158397	0.0756286	-0.472231	0.436587	0.59706	0.943199	0	0	-0.021672	-0.347749	0.168347	0.81963	1.49834	0	0
20.19	0.941893	1.52393	0.737426	0.671807	0.640397	0.928156	0.186562	-0.112751	-0.207195	0.528184	-0.200007	0	0	0.08825	-0.170374	-0.363612	0.302793	-0.387052	0	0	-0.172669	0.0991798	-0.157978	0.0784421	-0.472076	0.430379	0.598093	0.944338	0	0	-0.0193716	-0.348721	0.167185	0.822776	1.49845	0	0
20.2	0.830846	1.52138	0.850025	0.671777	0.638738	0.926706	0.20413	-0.117623	-0.204687	0.547724	-0.195106	0	0	0.10682	-0.172063	-0.362423	0.323913	-0.380071	0	0	-0.17483	0.0997249	-0.156648	0.0815169	-0.471948	0.423739	0.599057	0.94519	0	0	-0.0165565	-0.349883	0.166631	0.825845	1.49819	0	0
20.21	0.709779	1.51722	0.971297	0.671834	0.636905	0.925058	0.223877	-0.122285	-0.198674	0.564854	-0.19244	0	0	0.126998	-0.173318	-0.36129	0.344817	-0.373477	0	0	-0.17585	0.0997755	-0.154059	0.0850323	-0.471921	0.417106	0.599729	0.946212	0	0	-0.0135241	-0.351184	0.166869	0.828925	1.49599	0	0
20.22	0.644704	1.51523	1.03728	0.671872	0.635078	0.923654	0.239346	-0.126549	-0.1937	0.581568	-0.191231	0	0	0.142695	-0.174752	-0.359207	0.363596	-0.369628	0	0	-0.180881	0.10036	-0.151606	0.08935	-0.472488	0.413076	0.600409	0.947227	0	0	-0.00947793	-0.35334	0.169271	0.832383	1.49053	0	0
20.23	0.594952	1.51375	1.08775	0.67199	0.633264	0.922241	0.254668	-0.130647	-0.188931	0.601189	-0.189053	0	0	0.157387	-0.176573	-0.357295	0.382672	-0.36593	0	0	-0.187473	0.101008	-0.150443	0.0961852	-0.473296	0.414091	0.600254	0.946309	0	0	-0.00778835	-0.354217	0.164036	0.837423	1.49545	0	0
20.24	0.531955	1.51039	1.15017	0.67224	0.631369	0.920573	0.272981	-0.134439	-0.182552	0.621694	-0.185144	0	0	0.17448	-0.178498	-0.355944	0.403101	-0.359963	0	0	-0.192212	0.101295	-0.147878	0.102324	-0.473777	0.412922	0.600333	0.94597	0	0	-0.00597963	-0.355099	0.159613	0.842159	1.49857	0	0
20.25	0.472232	1.50594	1.20853	0.672526	0.629389	0.918761	0.291881	-0.13764	-0.175369	0.640493	-0.181133	0	0	0.192662	-0.18051	-0.354613	0.424002	-0.353034	0	0	-0.196301	0.101656	-0.144295	0.107731	-0.474232	0.409936	0.601131	0.945616	0	0	-0.00384439	-0.355826	0.155771	0.84655	1.50095	0	0
20.26	0.417434	1.5006	1.26156	0.672888	0.627355	0.916778	0.312697	-0.140931	-0.168151	0.66184	-0.176056	0	0	0.211935	-0.182923	-0.353941	0.445804	-0.344867	0	0	-0.199821	0.101882	-0.140118	0.112281	-0.474374	0.404689	0.602732	0.945403	0	0	-0.00166115	-0.356539	0.152024	0.851043	1.50301	0	0
20.27	0.382336	1.49702	1.29494	0.673289	0.625265	0.914915	0.331287	-0.143974	-0.162105	0.683114	-0.172261	0	0	0.228699	-0.185784	-0.353512	0.46685	-0.338414	0	0	-0.205968	0.102402	-0.13574	0.117047	-0.474507	0.399011	0.604984	0.944326	0	0	0.0011591	-0.357645	0.149172	0.855946	1.50352	0	0
20.28	0.349357	1.49255	1.32575	0.67376	0.623079	0.912921	0.350279	-0.146224	-0.155284	0.702371	-0.168617	0	0	0.246563	-0.189025	-0.353314	0.48834	-0.331659	0	0	-0.211635	0.102952	-0.130917	0.121693	-0.474693	0.392551	0.607758	0.94378	0	0	0.0039284	-0.358657	0.146017	0.861028	1.50345	0	0
20.29	0.323671	1.48744	1.34927	0.674206	0.620819	0.910857	0.368385	-0.147467	-0.148632	0.717966	-0.165665	0	0	0.265126	-0.192617	-0.35247	0.509762	-0.32496	0	0	-0.217072	0.103964	-0.125894	0.126526	-0.475192	0.386977	0.610511	0.944787	0	0	0.00691452	-0.359536	0.142991	0.865507	1.50442	0	0
20.3	0.304846	1.48315	1.36645	0.674633	0.618607	0.908788	0.385575	-0.148875	-0.143501	0.734675	-0.162693	0	0	0.282653	-0.196336	-0.351401	0.530866	-0.31848	0	0	-0.223461	0.105099	-0.121306	0.131291	-0.475687	0.380931	0.613474	0.946836	0	0	0.0098596	-0.360428	0.139709	0.870117	1.50573	0	0
20.31	0.286841	1.47966	1.38297	0.675127	0.616421	0.906693	0.40291	-0.150924	-0.139438	0.753992	-0.159433	0	0	0.2991	-0.199661	-0.350137	0.551213	-0.312302	0	0	-0.230765	0.105748	-0.116962	0.136241	-0.475699	0.374352	0.616146	0.950102	0	0	0.0126629	-0.361692	0.136243	0.875263	1.5068	0	0
20.32	0.266811	1.47554	1.40127	0.67567	0.614187	0.904455	0.42147	-0.15306	-0.134328	0.772322	-0.157498	0	0	0.316225	-0.202537	-0.348076	0.571166	-0.306183	0	0	-0.237658	0.106017	-0.11247	0.140952	-0.475177	0.366655	0.618724	0.95324	0	0	0.0152997	-0.362933	0.132322	0.880703	1.50769	0	0
20.33	0.248513	1.47136	1.41774	0.676229	0.611903	0.902162	0.438945	-0.154772	-0.129526	0.78877	-0.155339	0	0	0.333454	-0.205435	-0.345911	0.591133	-0.300134	0	0	-0.24477	0.106308	-0.10802	0.145666	-0.474473	0.358401	0.621488	0.955958	0	0	0.0179412	-0.364004	0.128011	0.886159	1.50845	0	0
20.34	0.232258	1.46784	1.43233	0.676742	0.609608	0.899832	0.4556	-0.156844	-0.12576	0.806033	-0.152485	0	0	0.349825	-0.208219	-0.343736	0.610865	-0.294063	0	0	-0.252722	0.106628	-0.103888	0.150468	-0.474037	0.349924	0.624816	0.958986	0	0	0.0204875	-0.365032	0.123452	0.891908	1.50918	0	0
20.35	0.213602	1.46241	1.44899	0.677289	0.607219	0.897181	0.475772	-0.159391	-0.122144	0.824337	-0.150826	0	0	0.368361	-0.210594	-0.340927	0.630385	-0.287696	0	0	-0.258656	0.106684	-0.0997383	0.154966	-0.473595	0.340914	0.628608	0.962803	0	0	0.0225608	-0.366008	0.118423	0.897801	1.50909	0	0
20.36	0.196753	1.45565	1.4634	0.677891	0.60474	0.894361	0.496717	-0.161053	-0.118379	0.841435	-0.148895	0	0	0.388544	-0.212945	-0.337521	0.650154	-0.281019	0	0	-0.263406	0.106747	-0.0952518	0.159537	-0.473133	0.331582	0.632354	0.967565	0	0	0.0246405	-0.366796	0.113077	0.903265	1.50887	0	0
20.37	0.184212	1.44981	1.47392	0.678409	0.602261	0.891632	0.515623	-0.162368	-0.115029	0.857614	-0.146135	0	0	0.407542	-0.215306	-0.334246	0.66953	-0.274527	0	0	-0.269359	0.107188	-0.0912522	0.164423	-0.47268	0.321556	0.636189	0.973468	0	0	0.0269962	-0.36722	0.107386	0.908241	1.509	0	0
20.38	0.174902	1.44444	1.48174	0.678888	0.599826	0.88894	0.533886	-0.163461	-0.110735	0.872731	-0.14424	0	0	0.426005	-0.217837	-0.331014	0.688744	-0.268432	0	0	-0.275867	0.107976	-0.0876246	0.169415	-0.472151	0.312378	0.639645	0.97993	0	0	0.0296106	-0.367314	0.101734	0.912683	1.50934	0	0
20.39	0.170026	1.44023	1.48534	0.679325	0.597418	0.886326	0.550833	-0.164218	-0.106831	0.889199	-0.141789	0	0	0.443131	-0.220908	-0.328124	0.707872	-0.262645	0	0	-0.283821	0.109296	-0.0841919	0.174476	-0.471575	0.302815	0.643389	0.985871	0	0	0.0324252	-0.367263	0.0960119	0.91682	1.50942	0	0
20.4	0.168658	1.43659	1.48538	0.67974	0.594991	0.883737	0.566753	-0.164295	-0.103182	0.905435	-0.138643	0	0	0.459537	-0.22447	-0.325127	0.726761	-0.257084	0	0	-0.292647	0.111014	-0.080653	0.180042	-0.4711	0.293165	0.646964	0.991979	0	0	0.0354919	-0.367074	0.0903211	0.920704	1.50995	0	0
